#!OML:ASF F:\VICON\USERDATA\INSTALL\Justin_Nancy\Justin_Nancy.ASF
:FULLY-SPECIFIED
:DEGREES

134
root 0.373763 17.3407 5.18954 -0.748329 -1.53437 -4.35552
lowerback 4.81458 0.174761 1.57667
upperback 0.113486 0.415755 3.59315
thorax -2.60054 0.208694 2.79016
lowerneck -15.3546 -2.79106 -9.64111
upperneck 23.2213 -2.55285 4.60321
head 10.1325 -1.49935 2.90985
rclavicle -4.2366e-015 -3.4191e-014
rhumerus -36.4728 -14.0789 -76.351
rradius 29.005
rwrist 7.68998
rhand -14.5943 14.0609
rfingers 7.12502
rthumb 11.556 -15.6005
lclavicle -4.2366e-015 -3.4191e-014
lhumerus -35.3492 2.2066 84.8744
lradius 36.1383
lwrist -2.00586
lhand -15.4742 26.6742
lfingers 7.12502
lthumb 10.7073 56.3813
rfemur -2.28511 9.39129 32.0292
rtibia 26.1266
rfoot -15.1762 -6.43082
rtoes 5.04053
lfemur -30.9149 2.38366 -15.1358
ltibia 63.3617
lfoot -7.10617 0.748113
ltoes -3.85891
135
root 0.371347 17.3174 5.42214 -0.585179 -1.86058 -4.47263
lowerback 4.89683 0.284807 1.746
upperback 0.0953532 0.574738 3.55006
thorax -2.66923 0.285573 2.63886
lowerneck -15.2171 -2.85882 -9.63141
upperneck 22.8157 -2.65371 4.58719
head 9.96875 -1.54105 2.88305
rclavicle 5.44173e-015 2.42517e-014
rhumerus -35.6398 -13.0798 -77.0006
rradius 29.7382
rwrist 6.65207
rhand -14.8045 13.4411
rfingers 7.12502
rthumb 11.3533 -16.2316
lclavicle 5.44173e-015 2.42517e-014
lhumerus -36.0728 2.13882 84.9633
lradius 36.1608
lwrist -1.9767
lhand -15.4983 27.5263
lfingers 7.12502
lthumb 10.6841 57.2347
rfemur -1.30014 9.54627 32.3059
rtibia 25.6639
rfoot -15.5066 -6.61309
rtoes 4.60108
lfemur -31.8651 2.50584 -15.0906
ltibia 61.4357
lfoot -8.01524 1.52328
ltoes -4.76715
136
root 0.374253 17.2912 5.65895 -0.505395 -2.13498 -4.63978
lowerback 5.04601 0.345874 1.99316
upperback 0.106832 0.675646 3.5394
thorax -2.74161 0.332393 2.48108
lowerneck -15.2193 -2.903 -9.69473
upperneck 22.4538 -2.6916 4.585
head 9.84453 -1.55778 2.88226
rclavicle 6.31141e-015 -1.98785e-014
rhumerus -34.8282 -12.1364 -77.5289
rradius 30.5083
rwrist 5.75641
rhand -14.8966 12.4606
rfingers 7.12502
rthumb 11.2645 -17.217
lclavicle 6.31141e-015 -1.98785e-014
lhumerus -36.7317 2.20494 85
lradius 36.1851
lwrist -2.49496
lhand -14.4568 27.8807
lfingers 7.12502
lthumb 11.6887 57.5346
rfemur -0.188104 9.46596 32.6154
rtibia 25.0897
rfoot -15.9445 -6.74422
rtoes 3.40929
lfemur -32.6046 2.64526 -15.0021
ltibia 59.3501
lfoot -8.69685 2.39161
ltoes -4.98757
137
root 0.372851 17.253 5.89009 -0.417878 -2.36788 -4.91363
lowerback 5.18388 0.408701 2.2978
upperback 0.160486 0.781749 3.56602
thorax -2.76315 0.381233 2.32897
lowerneck -15.5754 -2.89809 -9.59224
upperneck 22.4081 -2.63479 4.43378
head 9.88781 -1.53515 2.81666
rclavicle -3.47873e-015 -2.42517e-014
rhumerus -33.951 -11.278 -78.0039
rradius 31.1955
rwrist 4.85045
rhand -14.6283 11.9265
rfingers 7.12502
rthumb 11.5233 -17.7367
lclavicle -3.47873e-015 -2.42517e-014
lhumerus -37.0104 2.418 84.9683
lradius 35.8067
lwrist -3.60496
lhand -12.2904 28.4633
lfingers 7.12502
lthumb 13.7771 57.9871
rfemur 0.917358 9.22797 33.054
rtibia 24.4683
rfoot -16.3637 -6.87609
rtoes 2.75078
lfemur -33.28 2.7912 -14.7574
ltibia 57.062
lfoot -9.13434 3.21653
ltoes -3.79699
138
root 0.375493 17.2118 6.12188 -0.271342 -2.49436 -5.35112
lowerback 5.14465 0.43102 2.81432
upperback 0.296212 0.835185 3.63728
thorax -2.59626 0.402574 2.10903
lowerneck -16.0903 -2.91403 -9.64056
upperneck 22.4534 -2.61333 4.52685
head 10.0013 -1.51401 2.85936
rclavicle 1.39149e-015 -9.14409e-015
rhumerus -32.6932 -10.666 -78.3635
rradius 31.4235
rwrist 4.29335
rhand -14.3778 11.9424
rfingers 7.12502
rthumb 11.7648 -17.7072
lclavicle 1.39149e-015 -9.14409e-015
lhumerus -37.1446 2.44634 85.0456
lradius 35.3543
lwrist -4.22069
lhand -10.8585 29.1633
lfingers 7.12502
lthumb 15.1568 58.5883
rfemur 2.05111 8.88814 33.647
rtibia 23.767
rfoot -16.6384 -7.08745
rtoes 1.88834
lfemur -33.9051 2.75278 -14.3328
ltibia 54.5626
lfoot -9.35735 3.88337
ltoes -4.16715
139
root 0.382824 17.1911 6.36702 -0.0269132 -2.68483 -5.35431
lowerback 4.89504 0.477464 2.99809
upperback 0.369207 0.887676 3.54239
thorax -2.3774 0.427694 1.90561
lowerneck -16.1595 -2.90254 -9.67389
upperneck 22.1386 -2.60823 4.66007
head 9.90302 -1.49273 2.90814
rclavicle -6.43565e-015 6.36111e-015
rhumerus -31.613 -9.83445 -78.791
rradius 31.8207
rwrist 3.7771
rhand -14.4856 11.9034
rfingers 7.12502
rthumb 11.6609 -17.7521
lclavicle -6.43565e-015 6.36111e-015
lhumerus -37.6208 2.26854 85.169
lradius 35.1569
lwrist -4.15051
lhand -11.1719 28.3282
lfingers 7.12502
lthumb 14.8548 57.7757
rfemur 3.12987 8.59459 33.6728
rtibia 23.01
rfoot -17.0275 -7.05962
rtoes 2.10086
lfemur -34.3359 2.55351 -14.3787
ltibia 51.7472
lfoot -8.93782 4.7413
ltoes -2.96438
